{
  "accessors": [
    {
      "bufferView": 0,
      "componentType": 5126,
      "count": 266,
      "max": [
        9.70363712310791,
        9.70363712310791,
        3.775669813156128
      ],
      "min": [
        -9.70363712310791,
        -9.70363712310791,
        -2.6561782360076904
      ],
      "type": "VEC3"
    },
    {
      "bufferView": 0,
      "byteOffset": 12,
      "componentType": 5126,
      "count": 266,
      "type": "VEC3"
    },
    {
      "bufferView": 0,
      "byteOffset": 24,
      "componentType": 5126,
      "count": 266,
      "type": "VEC2"
    },
    {
      "bufferView": 1,
      "componentType": 5125,
      "count": 1152,
      "type": "SCALAR"
    }
  ],
  "asset": {
    "version": "2.0"
  },
  "bufferViews": [
    {
      "buffer": 0,
      "byteLength": 8512,
      "byteStride": 32,
      "target": 34962
    },
    {
      "buffer": 0,
      "byteLength": 4608,
      "byteOffset": 8512,
      "target": 34963
    }
  ],
  "buffers": [
    {
      "byteLength": 13120,
      "uri": "Black_05_advisor_right.bin"
    }
  ],
  "images": [
    {
      "uri": "Material__28basecolortexture.png"
    }
  ],
  "materials": [
    {
      "name": "Material__28",
      "pbrMetallicRoughness": {
        "baseColorFactor": [
          0.5,
          0.5,
          0.5,
          1.0
        ],
        "baseColorTexture": {
          "index": 0
        },
        "metallicFactor": 0.0,
        "roughnessFactor": 0.0
      }
    }
  ],
  "meshes": [
    {
      "name": "Black_05_advisor_right",
      "primitives": [
        {
          "attributes": {
            "NORMAL": 1,
            "POSITION": 0,
            "TEXCOORD_0": 2
          },
          "indices": 3,
          "material": 0,
          "mode": 4
        }
      ]
    }
  ],
  "nodes": [
    {
      "matrix": [
        0.001,
        0.0,
        0.0,
        0.0,
        0.0,
        0.001,
        0.0,
        0.0,
        0.0,
        0.0,
        0.001,
        0.0,
        0.0,
        0.0,
        0.0,
        1.0
      ],
      "mesh": 0,
      "name": "Black_05_advisor_right"
    },
    {
      "children": [
        0
      ],
      "matrix": [
        2.41013240814209,
        -7.037069677081314e-23,
        0.0,
        0.0,
        8.388843776507629e-30,
        2.8731025736306037e-07,
        -2.410133123397827,
        0.0,
        7.037072201436211e-23,
        2.410133123397827,
        2.8731025736306037e-07,
        0.0,
        0.04313574981689453,
        1.00575146484375,
        -0.2437226104736328,
        1.0
      ]
    }
  ],
  "samplers": [
    {
      "magFilter": 9729,
      "minFilter": 9729,
      "wrapS": 10497,
      "wrapT": 10497
    }
  ],
  "scenes": [
    {
      "nodes": [
        1
      ]
    }
  ],
  "textures": [
    {
      "name": "texture_source0_sampler0",
      "sampler": 0,
      "source": 0
    }
  ]
}
