{
  "accessors": [
    {
      "bufferView": 0,
      "componentType": 5126,
      "count": 266,
      "max": [
        9.70363712310791,
        9.70363712310791,
        3.775669813156128
      ],
      "min": [
        -9.70363712310791,
        -9.70363712310791,
        -2.6561782360076904
      ],
      "type": "VEC3"
    },
    {
      "bufferView": 0,
      "byteOffset": 12,
      "componentType": 5126,
      "count": 266,
      "type": "VEC3"
    },
    {
      "bufferView": 0,
      "byteOffset": 24,
      "componentType": 5126,
      "count": 266,
      "type": "VEC2"
    },
    {
      "bufferView": 1,
      "componentType": 5125,
      "count": 1152,
      "type": "SCALAR"
    }
  ],
  "asset": {
    "version": "2.0"
  },
  "bufferViews": [
    {
      "buffer": 0,
      "byteLength": 8512,
      "byteStride": 32,
      "target": 34962
    },
    {
      "buffer": 0,
      "byteLength": 4608,
      "byteOffset": 8512,
      "target": 34963
    }
  ],
  "buffers": [
    {
      "byteLength": 13120,
      "uri": "test.bin"
    }
  ],
  "images": [
    {
      "uri": "Material__27basecolortexture.png"
    }
  ],
  "materials": [
    {
      "name": "Material__27",
      "pbrMetallicRoughness": {
        "baseColorFactor": [
          0.5,
          0.5,
          0.5,
          1.0
        ],
        "baseColorTexture": {
          "index": 0
        },
        "metallicFactor": 0.0,
        "roughnessFactor": 0.0
      }
    }
  ],
  "meshes": [
    {
      "name": "Soldier_9_chinese_chess_0",
      "primitives": [
        {
          "attributes": {
            "NORMAL": 1,
            "POSITION": 0,
            "TEXCOORD_0": 2
          },
          "indices": 3,
          "material": 0,
          "mode": 4
        }
      ]
    }
  ],
  "nodes": [
    {
      "matrix": [
        0.001,
        0.0,
        0.0,
        0.0,
        0.0,
        0.001,
        0.0,
        0.0,
        0.0,
        0.0,
        0.001,
        0.0,
        0.0,
        0.0,
        0.0,
        1.0
      ],
      "mesh": 0,
      "name": "Soldier_9_chinese_chess_0"
    },
    {
      "children": [
        0
      ],
      "matrix": [
        14.690865516662596,
        3.0620498541258923e-13,
        -2.5686335902719293e-06,
        0.0,
        -2.5686324534035525e-06,
        1.7512884369352832e-06,
        -14.690871238708498,
        0.0,
        2.117582368135751e-22,
        14.690871238708498,
        1.7512884369352832e-06,
        0.0,
        -0.6103204956054687,
        0.30085440063476565,
        0.132801513671875,
        1.0
      ]
    }
  ],
  "samplers": [
    {
      "magFilter": 9729,
      "minFilter": 9729,
      "wrapS": 10497,
      "wrapT": 10497
    }
  ],
  "scenes": [
    {
      "nodes": [
        1
      ]
    }
  ],
  "textures": [
    {
      "name": "texture_source0_sampler0",
      "sampler": 0,
      "source": 0
    }
  ]
}
