{
  "accessors": [
    {
      "bufferView": 0,
      "componentType": 5126,
      "count": 24,
      "max": [
        800.0001220703125,
        1900.0003662109375,
        50.0000114440918
      ],
      "min": [
        -800.0001220703125,
        -2000.000732421875,
        0.0
      ],
      "type": "VEC3"
    },
    {
      "bufferView": 0,
      "byteOffset": 12,
      "componentType": 5126,
      "count": 24,
      "type": "VEC3"
    },
    {
      "bufferView": 0,
      "byteOffset": 24,
      "componentType": 5126,
      "count": 24,
      "type": "VEC2"
    },
    {
      "bufferView": 1,
      "componentType": 5125,
      "count": 36,
      "type": "SCALAR"
    },
    {
      "bufferView": 2,
      "componentType": 5126,
      "count": 24,
      "max": [
        2.5,
        1500.0,
        1.0
      ],
      "min": [
        -2.5,
        -1500.0,
        0.0
      ],
      "type": "VEC3"
    },
    {
      "bufferView": 2,
      "byteOffset": 12,
      "componentType": 5126,
      "count": 24,
      "type": "VEC3"
    },
    {
      "bufferView": 3,
      "componentType": 5125,
      "count": 36,
      "type": "SCALAR"
    },
    {
      "bufferView": 4,
      "componentType": 5126,
      "count": 48,
      "max": [
        900.0,
        2000.0,
        260.0
      ],
      "min": [
        -900.0,
        -2000.0,
        0.0
      ],
      "type": "VEC3"
    },
    {
      "bufferView": 4,
      "byteOffset": 12,
      "componentType": 5126,
      "count": 48,
      "type": "VEC3"
    },
    {
      "bufferView": 4,
      "byteOffset": 24,
      "componentType": 5126,
      "count": 48,
      "type": "VEC2"
    },
    {
      "bufferView": 5,
      "componentType": 5125,
      "count": 84,
      "type": "SCALAR"
    },
    {
      "bufferView": 6,
      "componentType": 5126,
      "count": 24,
      "max": [
        2.5,
        100.0,
        1.0002281665802002
      ],
      "min": [
        -2.500061273574829,
        -1500.0,
        0.0
      ],
      "type": "VEC3"
    },
    {
      "bufferView": 6,
      "byteOffset": 12,
      "componentType": 5126,
      "count": 24,
      "type": "VEC3"
    },
    {
      "bufferView": 7,
      "componentType": 5125,
      "count": 36,
      "type": "SCALAR"
    },
    {
      "bufferView": 8,
      "componentType": 5126,
      "count": 40,
      "max": [
        100.00000762939453,
        920.0,
        20.0
      ],
      "min": [
        -20.000003814697266,
        -920.0,
        -20.0
      ],
      "type": "VEC3"
    },
    {
      "bufferView": 8,
      "byteOffset": 12,
      "componentType": 5126,
      "count": 40,
      "type": "VEC3"
    },
    {
      "bufferView": 9,
      "componentType": 5125,
      "count": 84,
      "type": "SCALAR"
    },
    {
      "bufferView": 10,
      "componentType": 5126,
      "count": 40,
      "max": [
        100.00000762939453,
        920.0,
        20.0
      ],
      "min": [
        -20.000003814697266,
        -920.0,
        -20.0
      ],
      "type": "VEC3"
    },
    {
      "bufferView": 10,
      "byteOffset": 12,
      "componentType": 5126,
      "count": 40,
      "type": "VEC3"
    },
    {
      "bufferView": 11,
      "componentType": 5125,
      "count": 84,
      "type": "SCALAR"
    }
  ],
  "asset": {
    "version": "2.0"
  },
  "bufferViews": [
    {
      "buffer": 0,
      "byteLength": 768,
      "byteStride": 32,
      "target": 34962
    },
    {
      "buffer": 0,
      "byteLength": 144,
      "byteOffset": 768,
      "target": 34963
    },
    {
      "buffer": 0,
      "byteLength": 768,
      "byteOffset": 912,
      "byteStride": 32,
      "target": 34962
    },
    {
      "buffer": 0,
      "byteLength": 144,
      "byteOffset": 1680,
      "target": 34963
    },
    {
      "buffer": 0,
      "byteLength": 1536,
      "byteOffset": 1824,
      "byteStride": 32,
      "target": 34962
    },
    {
      "buffer": 0,
      "byteLength": 336,
      "byteOffset": 3360,
      "target": 34963
    },
    {
      "buffer": 0,
      "byteLength": 768,
      "byteOffset": 3696,
      "byteStride": 32,
      "target": 34962
    },
    {
      "buffer": 0,
      "byteLength": 144,
      "byteOffset": 4464,
      "target": 34963
    },
    {
      "buffer": 0,
      "byteLength": 1280,
      "byteOffset": 4608,
      "byteStride": 32,
      "target": 34962
    },
    {
      "buffer": 0,
      "byteLength": 336,
      "byteOffset": 5888,
      "target": 34963
    },
    {
      "buffer": 0,
      "byteLength": 1280,
      "byteOffset": 6224,
      "byteStride": 32,
      "target": 34962
    },
    {
      "buffer": 0,
      "byteLength": 336,
      "byteOffset": 7504,
      "target": 34963
    }
  ],
  "buffers": [
    {
      "byteLength": 7840,
      "uri": "right_door.bin"
    }
  ],
  "images": [
    {
      "uri": "Material__2147433293basecolortexture.jpeg"
    },
    {
      "uri": "Material__2147433294basecolortexture.jpeg"
    }
  ],
  "materials": [
    {
      "name": "Material__2147433293",
      "pbrMetallicRoughness": {
        "baseColorFactor": [
          0.5,
          0.5,
          0.5,
          1.0
        ],
        "baseColorTexture": {
          "index": 0
        },
        "metallicFactor": 0.0,
        "roughnessFactor": 0.0
      }
    },
    {
      "name": "fallback Material",
      "pbrMetallicRoughness": {
        "baseColorFactor": [
          0.0,
          0.0,
          0.0,
          1.0
        ]
      }
    },
    {
      "name": "Material__2147433294",
      "pbrMetallicRoughness": {
        "baseColorFactor": [
          0.5,
          0.5,
          0.5,
          1.0
        ],
        "baseColorTexture": {
          "index": 1
        },
        "metallicFactor": 0.0,
        "roughnessFactor": 0.0
      }
    },
    {
      "name": "fallback Material",
      "pbrMetallicRoughness": {
        "baseColorFactor": [
          0.0,
          0.0,
          0.0,
          1.0
        ]
      }
    }
  ],
  "meshes": [
    {
      "name": "right_door_box",
      "primitives": [
        {
          "attributes": {
            "NORMAL": 1,
            "POSITION": 0,
            "TEXCOORD_0": 2
          },
          "indices": 3,
          "material": 0,
          "mode": 4
        }
      ]
    },
    {
      "name": "right_door_gap_center",
      "primitives": [
        {
          "attributes": {
            "NORMAL": 5,
            "POSITION": 4
          },
          "indices": 6,
          "material": 1,
          "mode": 4
        }
      ]
    },
    {
      "name": "right_door_bordar",
      "primitives": [
        {
          "attributes": {
            "NORMAL": 8,
            "POSITION": 7,
            "TEXCOORD_0": 9
          },
          "indices": 10,
          "material": 2,
          "mode": 4
        }
      ]
    },
    {
      "name": "right_door_gap_up",
      "primitives": [
        {
          "attributes": {
            "NORMAL": 12,
            "POSITION": 11
          },
          "indices": 13,
          "material": 1,
          "mode": 4
        }
      ]
    },
    {
      "name": "right_door_handle_1",
      "primitives": [
        {
          "attributes": {
            "NORMAL": 15,
            "POSITION": 14
          },
          "indices": 16,
          "material": 3,
          "mode": 4
        }
      ]
    },
    {
      "name": "right_door_handle_2",
      "primitives": [
        {
          "attributes": {
            "NORMAL": 18,
            "POSITION": 17
          },
          "indices": 19,
          "material": 3,
          "mode": 4
        }
      ]
    }
  ],
  "nodes": [
    {
      "matrix": [
        0.001,
        0.0,
        0.0,
        0.0,
        0.0,
        0.001,
        0.0,
        0.0,
        0.0,
        0.0,
        0.001,
        0.0,
        0.0,
        0.0,
        0.0,
        1.0
      ],
      "mesh": 0,
      "name": "right_door_box"
    },
    {
      "children": [
        0
      ],
      "matrix": [
        1.0,
        0.0,
        0.0,
        0.0,
        0.0,
        1.0,
        1.6292068494294654e-07,
        0.0,
        0.0,
        -1.6292068494294654e-07,
        1.0,
        0.0,
        5.5000615234375,
        1.999999755859375,
        -6.07080908203125,
        1.0
      ]
    },
    {
      "matrix": [
        0.001,
        0.0,
        0.0,
        0.0,
        0.0,
        0.001,
        0.0,
        0.0,
        0.0,
        0.0,
        0.001,
        0.0,
        0.0,
        0.0,
        0.0,
        1.0
      ],
      "mesh": 1,
      "name": "right_door_gap_center"
    },
    {
      "children": [
        2
      ],
      "matrix": [
        1.0,
        0.0,
        0.0,
        0.0,
        0.0,
        1.0,
        1.6292068494294654e-07,
        0.0,
        0.0,
        -1.6292068494294654e-07,
        1.0,
        0.0,
        5.490875,
        1.5,
        -6.02080908203125,
        1.0
      ]
    },
    {
      "matrix": [
        0.001,
        0.0,
        0.0,
        0.0,
        0.0,
        0.001,
        0.0,
        0.0,
        0.0,
        0.0,
        0.001,
        0.0,
        0.0,
        0.0,
        0.0,
        1.0
      ],
      "mesh": 2,
      "name": "right_door_bordar"
    },
    {
      "children": [
        4
      ],
      "matrix": [
        1.0,
        0.0,
        0.0,
        0.0,
        0.0,
        1.0,
        1.6292068494294654e-07,
        0.0,
        0.0,
        -1.6292068494294654e-07,
        1.0,
        0.0,
        5.5000615234375,
        1.999999755859375,
        -6.2750004882812505,
        1.0
      ]
    },
    {
      "matrix": [
        0.001,
        0.0,
        0.0,
        0.0,
        0.0,
        0.001,
        0.0,
        0.0,
        0.0,
        0.0,
        0.001,
        0.0,
        0.0,
        0.0,
        0.0,
        1.0
      ],
      "mesh": 3,
      "name": "right_door_gap_up"
    },
    {
      "children": [
        6
      ],
      "matrix": [
        -1.6292068494294654e-07,
        1.0,
        1.456624432888149e-14,
        0.0,
        -1.0,
        -1.6292068494294654e-07,
        2.523276521060325e-07,
        0.0,
        2.523276521060325e-07,
        2.6543149595588053e-14,
        1.0,
        0.0,
        4.8000615234375,
        3.0025,
        -6.02080908203125,
        1.0
      ]
    },
    {
      "matrix": [
        0.001,
        0.0,
        0.0,
        0.0,
        0.0,
        0.001,
        0.0,
        0.0,
        0.0,
        0.0,
        0.001,
        0.0,
        0.0,
        0.0,
        0.0,
        1.0
      ],
      "mesh": 4,
      "name": "right_door_handle_1"
    },
    {
      "children": [
        8
      ],
      "matrix": [
        -4.371138828673793e-08,
        0.0,
        -1.0,
        0.0,
        4.371138828673793e-08,
        1.0,
        -1.910685465164705e-15,
        0.0,
        1.0,
        -4.371138828673793e-08,
        -4.371138828673793e-08,
        0.0,
        5.4096005859375005,
        1.374088134765625,
        -5.9208090820312504,
        1.0
      ]
    },
    {
      "matrix": [
        0.001,
        0.0,
        0.0,
        0.0,
        0.0,
        0.001,
        0.0,
        0.0,
        0.0,
        0.0,
        0.001,
        0.0,
        0.0,
        0.0,
        0.0,
        1.0
      ],
      "mesh": 5,
      "name": "right_door_handle_2"
    },
    {
      "children": [
        10
      ],
      "matrix": [
        -4.371138828673793e-08,
        0.0,
        -1.0,
        0.0,
        4.371138828673793e-08,
        1.0,
        -1.910685465164705e-15,
        0.0,
        1.0,
        -4.371138828673793e-08,
        -4.371138828673793e-08,
        0.0,
        5.5787939453125,
        1.374088134765625,
        -5.9208090820312504,
        1.0
      ]
    }
  ],
  "samplers": [
    {
      "magFilter": 9729,
      "minFilter": 9729,
      "wrapS": 10497,
      "wrapT": 10497
    },
    {
      "magFilter": 9729,
      "minFilter": 9729,
      "wrapS": 10497,
      "wrapT": 10497
    }
  ],
  "scenes": [
    {
      "nodes": [
        1,
        3,
        5,
        7,
        9,
        11
      ]
    }
  ],
  "textures": [
    {
      "name": "texture_source0_sampler0",
      "sampler": 0,
      "source": 0
    },
    {
      "name": "texture_source1_sampler1",
      "sampler": 1,
      "source": 1
    }
  ]
}
