{
  "accessors": [
    {
      "bufferView": 0,
      "componentType": 5126,
      "count": 48,
      "max": [
        4600.0,
        350.0,
        4000.0
      ],
      "min": [
        -11099.875,
        -350.0,
        -36.70708465576172
      ],
      "type": "VEC3"
    },
    {
      "bufferView": 0,
      "byteOffset": 12,
      "componentType": 5126,
      "count": 48,
      "type": "VEC3"
    },
    {
      "bufferView": 1,
      "componentType": 5125,
      "count": 72,
      "type": "SCALAR"
    }
  ],
  "asset": {
    "version": "2.0"
  },
  "bufferViews": [
    {
      "buffer": 0,
      "byteLength": 1152,
      "byteStride": 24,
      "target": 34962
    },
    {
      "buffer": 0,
      "byteLength": 288,
      "byteOffset": 1152,
      "target": 34963
    }
  ],
  "buffers": [
    {
      "byteLength": 1440,
      "uri": "wall_top.bin"
    }
  ],
  "images": [
    {
      "uri": "Material__2147433316basecolortexture.png"
    }
  ],
  "materials": [
    {
      "name": "Material__2147433316",
      "pbrMetallicRoughness": {
        "baseColorFactor": [
          0.5,
          0.5,
          0.5,
          1.0
        ],
        "baseColorTexture": {
          "index": 0
        },
        "metallicFactor": 0.0,
        "roughnessFactor": 0.0
      }
    }
  ],
  "meshes": [
    {
      "name": "wall_top",
      "primitives": [
        {
          "attributes": {
            "NORMAL": 1,
            "POSITION": 0
          },
          "indices": 2,
          "material": 0,
          "mode": 4
        }
      ]
    }
  ],
  "nodes": [
    {
      "matrix": [
        0.001,
        0.0,
        0.0,
        0.0,
        0.0,
        0.001,
        0.0,
        0.0,
        0.0,
        0.0,
        0.001,
        0.0,
        0.0,
        0.0,
        0.0,
        1.0
      ],
      "mesh": 0,
      "name": "wall_top"
    },
    {
      "children": [
        0
      ],
      "matrix": [
        1.0,
        0.0,
        0.0,
        0.0,
        0.0,
        0.0,
        -1.0,
        0.0,
        0.0,
        1.0,
        0.0,
        0.0,
        3.25,
        0.0,
        -6.385,
        1.0
      ]
    }
  ],
  "samplers": [
    {
      "magFilter": 9729,
      "minFilter": 9729,
      "wrapS": 10497,
      "wrapT": 10497
    }
  ],
  "scenes": [
    {
      "nodes": [
        1
      ]
    }
  ],
  "textures": [
    {
      "name": "texture_source0_sampler0",
      "sampler": 0,
      "source": 0
    }
  ]
}
